<svg width="150" height="100" viewBox="0 0 150 100" fill="none" xmlns="http://www.w3.org/2000/svg">
<path d="M127.582 72.6523C127.583 70.5835 127.6 68.6496 127.58 66.7159C127.568 65.5611 128.032 65.0272 129.374 65.0137C134.493 64.9623 135.47 65.8162 135.483 70.5939C135.488 72.3478 135.471 74.1019 135.487 75.8557C135.492 76.3816 135.377 76.9417 135.861 77.5006C136.738 77.1106 137.618 76.6807 138.53 76.3201C143.476 74.3632 147.805 76.5742 148.751 81.5269C149.237 84.0723 148.922 86.643 149.03 89.2001C149.146 91.9615 148.549 94.7898 149.911 97.4415C150.169 97.9424 149.828 98.2803 149.374 98.543C147.807 99.4486 146.123 99.9016 144.278 99.6674C142.395 99.4284 141.323 98.1127 141.06 95.8927C140.716 92.9757 140.954 90.0523 140.887 87.1326C140.864 86.1439 140.879 85.1506 140.777 84.1684C140.645 82.8949 139.903 82.3608 138.534 82.4321C136.627 82.5314 135.461 83.6528 135.458 85.4212C135.452 89.5586 135.421 93.6966 135.479 97.8334C135.495 98.969 135.1 99.5211 133.87 99.5302C132.475 99.5404 131.077 99.6514 129.687 99.5886C127.73 99.5002 127.587 99.307 127.587 97.4773C127.588 92.8002 127.597 88.123 127.596 83.4459C127.596 79.893 127.587 76.3401 127.582 72.6523Z" fill="#F0F0F0"/>
<path d="M8.25179 96.3902C8.2647 99.6126 8.26472 99.6166 4.86676 99.63C3.85567 99.634 2.84444 99.6091 1.83328 99.5969C0.521702 99.581 0.000645738 99.014 0.0109662 97.742C0.0635163 91.2651 0.0407807 84.7877 0.0395899 78.3104C0.0390254 75.2517 0.0689722 72.1923 0.00107808 69.1348C-0.0263635 67.8989 0.467507 67.4793 1.77657 67.4871C7.98999 67.5239 14.204 67.5137 20.4174 67.4733C21.5284 67.466 21.9484 67.8957 22.089 68.8654C22.5954 72.3575 21.1594 74.0041 17.4119 74.0646C14.8116 74.1066 12.2095 74.0953 9.60905 74.059C8.6366 74.0454 8.18943 74.349 8.23355 75.3026C8.28966 76.515 8.29436 77.7323 8.24845 78.9451C8.21277 79.8876 8.63463 80.205 9.62021 80.191C12.1724 80.1549 14.7266 80.2261 17.2783 80.1779C18.4081 80.1567 18.9507 80.5285 19.0903 81.5969C19.2549 82.8572 19.2741 84.093 19.0783 85.3533C18.9223 86.3579 18.3836 86.7292 17.3376 86.7163C14.8332 86.6853 12.3273 86.7403 9.82388 86.6853C8.65085 86.6595 8.20124 87.0388 8.22766 88.1617C8.29117 90.8593 8.24993 93.559 8.25179 96.3902Z" fill="#F0F0F0"/>
<path d="M78.3167 85.0311C78.9744 81.0856 80.5842 77.9073 84.6347 76.1787C91.366 73.3061 98.6374 77.0161 99.6731 83.839C99.9373 85.5791 99.655 87.223 99.3747 88.9041C99.2398 89.7129 98.8156 90.0421 97.9415 90.081C94.8631 90.2182 91.7887 90.2042 88.7105 90.0725C87.9771 90.0412 86.9849 89.6856 86.5512 90.3697C86.0819 91.1098 86.7308 91.9027 87.1061 92.6169C87.7182 93.7816 88.8841 94.0553 90.1142 94.1535C92.0792 94.3103 93.9418 93.8212 95.7413 93.1779C96.725 92.8262 97.3438 92.9089 97.8598 93.8242C99.7809 97.2322 99.5425 97.5137 96.0386 98.8728C92.8398 100.114 89.4922 100.28 86.1231 99.6158C81.7591 98.755 79.0053 95.5871 78.3681 90.7778C78.1203 88.9072 77.8619 87.0296 78.3167 85.0311ZM92.2887 83.8518C92.2163 83.5023 92.1915 83.1366 92.0633 82.8059C91.4918 81.3312 90.0792 80.5504 88.5839 80.8518C87.3749 81.0955 86.2521 82.6584 86.3293 83.9694C86.3486 84.2978 86.3736 84.6747 86.7585 84.734C88.5032 85.0027 90.2581 85.1267 91.9837 84.6341C92.1323 84.5916 92.1871 84.2625 92.2887 83.8518Z" fill="#F0F0F0"/>
<path d="M73.1409 74.123C72.523 74.6605 72.7027 75.2756 72.7017 75.8404C72.6891 83.0743 72.6952 90.3083 72.6892 97.5422C72.6878 99.3054 72.573 99.4642 70.6742 99.5905C69.2375 99.6861 67.7889 99.6162 66.3466 99.6526C64.9653 99.6874 64.4074 99.1641 64.4186 97.8054C64.4775 90.6618 64.4516 83.5175 64.4556 76.3735C64.4569 74.0345 64.4357 74.0166 62.0049 74.0354C60.4652 74.0473 58.9248 74.0261 57.3861 74.0646C56.5597 74.0853 56.1635 73.7662 56.0198 73.0109C55.7476 71.5793 55.7547 70.1524 55.9451 68.7181C56.0567 67.8779 56.4905 67.4836 57.4692 67.4866C64.8307 67.5094 72.1924 67.5012 79.5539 67.4811C80.5453 67.4784 81.0481 67.8055 81.1652 68.7757C81.2677 69.6238 81.4373 70.4366 81.2317 71.305C80.8882 72.7555 79.9853 73.5318 78.4322 73.828C76.7099 74.1563 74.9769 73.9338 73.1409 74.123Z" fill="#F0F0F0"/>
<path d="M71.2189 23.8173C65.6518 20.8781 62.9493 14.9953 64.5694 9.50136C66.2699 3.7345 71.7466 -0.0848234 78.1917 0.00143135C84.2302 0.0822433 89.6437 4.16819 91.0771 9.67291C91.8758 12.7401 91.4534 15.6634 89.97 18.4512C89.5313 19.2758 89.5715 19.9325 90.0036 20.722C91.9521 24.2831 94.3289 27.6343 95.977 31.3419C98.1119 36.1446 98.8939 41.0912 97.8698 46.2508C97.6747 47.2337 97.2583 47.8498 96.1814 48.1762C89.0336 50.3429 81.8661 52.4115 74.3317 53.0758C68.7189 53.5706 63.2728 52.9807 58.0948 50.834C57.1001 50.4217 56.6388 50.5979 56.1539 51.4192C54.4144 54.3653 51.7984 56.2883 48.2914 57.1201C47.9208 57.2079 47.5372 57.2743 47.1566 57.2918C46.7036 57.3126 46.2613 57.2051 46.1245 56.7326C45.9785 56.228 46.3699 55.9933 46.7846 55.8327C47.2284 55.6608 47.6841 55.5064 48.1477 55.3898C51.541 54.5369 53.8676 52.5319 55.3402 49.6032C56.233 47.8276 57.4825 46.4014 59.5738 45.7947C59.9396 45.6885 60.3194 45.6163 60.6979 45.5585C61.2042 45.4813 61.7097 45.512 61.8685 46.0705C62.0453 46.692 61.5033 46.8253 61.043 46.9557C59.8427 47.2957 58.6784 47.6806 57.812 48.794C60.5036 50.2569 63.3693 50.9117 66.3238 51.2789C73.0559 52.1158 79.5593 50.8463 86.0132 49.2967C88.9949 48.5807 91.9253 47.6796 94.8858 46.8845C95.8367 46.6291 96.1787 46.1348 96.329 45.1715C97.3475 38.6429 95.2616 32.8259 91.8743 27.2675C90.6656 25.284 89.5261 23.2637 88.258 21.0943C86.8265 22.3505 85.3724 23.3581 83.7723 24.1664C83.3027 24.4035 83.269 24.7839 83.4044 25.212C83.8683 26.6787 83.6864 28.1488 83.44 29.6216C82.9765 32.3916 83.026 35.1771 83.1329 37.9671C83.1537 38.5096 83.468 39.2531 82.7461 39.5488C82.018 39.8471 81.4809 39.2442 81.0102 38.8254C78.4498 36.5472 75.525 34.874 72.0675 34.0967C67.1287 32.9864 62.7373 34.0592 58.8588 37.0775C58.674 37.2213 58.5109 37.3899 58.3229 37.5296C58.0126 37.7602 57.6673 37.9798 57.289 37.6854C56.8802 37.3673 56.948 36.9565 57.2047 36.5902C57.7418 35.8239 58.5047 35.2733 59.296 34.752C59.5642 34.5753 59.8029 34.3596 60.1278 34.1046C58.2378 31.7061 55.6249 30.567 52.665 30.1214C50.6204 29.8136 48.5351 29.8466 46.5084 30.4243C46.0172 30.5643 45.4069 30.846 45.1632 30.1629C44.9152 29.4679 45.5428 29.2265 46.0853 29.0192C47.3061 28.5527 48.6068 28.3931 49.9009 28.3761C54.2975 28.3185 58.1274 29.6217 61.1645 32.6848C61.5671 33.0908 61.8581 33.4558 62.6012 33.1951C68.5554 31.1063 74.0388 32.2596 79.2131 35.3893C79.8074 35.7487 80.3982 36.113 81.3129 36.672C80.8582 32.9731 82.0933 29.6645 81.8568 26.2491C81.7915 25.306 81.5914 24.8717 80.3824 25.1261C77.2118 25.7932 74.1686 25.3385 71.2189 23.8173ZM67.2386 17.9128C70.0155 22.3382 74.9677 24.5607 80.0213 23.6497C86.7347 22.4395 90.8753 16.3966 89.3302 10.0644C87.8613 4.04465 81.0944 0.360192 74.5944 1.99109C67.688 3.72397 63.7611 10.9418 67.2386 17.9128Z" fill="#F0F0F0"/>
<path d="M116.062 99.7704C109.578 100.734 104.443 97.9407 103.152 91.5992C102.247 87.1528 102.483 82.9049 105.419 79.1063C109.193 74.2236 117.83 73.956 122.002 78.5409C123.218 79.8771 123.709 81.4694 123.689 83.1613C123.656 85.9049 119.776 87.8462 117.122 86.5226C116.611 86.2675 116.537 85.8701 116.49 85.4066C116.408 84.6026 116.344 83.7917 116.174 83.0021C115.95 81.9577 115.376 81.1733 114.107 81.0672C112.817 80.9593 111.916 81.5031 111.574 82.6277C110.636 85.7133 110.518 88.8447 111.554 91.918C112.14 93.6585 113.763 94.3346 115.699 93.9497C117.068 93.6772 118.417 93.3649 119.596 92.6074C120.254 92.1842 120.86 92.2755 121.394 92.8263C121.523 92.9594 121.667 93.0794 121.795 93.2132C124.026 95.5428 123.832 96.6602 120.917 98.1869C119.438 98.9611 117.88 99.5373 116.062 99.7704Z" fill="#F0F0F0"/>
<path d="M49.0264 85.0717C49.0351 87.3199 49.01 89.4347 49.0638 91.5478C49.1067 93.2312 49.6419 93.6347 51.4437 93.7217C52.303 93.7632 53.4316 93.268 53.9516 94.2346C54.6534 95.5389 54.8953 96.9854 54.45 98.4297C54.2413 99.1067 53.5088 99.1094 52.8843 99.166C51.5921 99.2832 50.2951 99.3627 49.0075 99.513C44.1777 100.077 41.2637 97.8446 41.1287 93.3089C41.0257 89.8479 41.041 86.3813 41.1164 82.9194C41.1438 81.666 40.707 81.2584 39.3874 81.312C37.2185 81.4001 37.2087 81.3428 36.9676 79.2826C36.9158 78.8394 36.8845 78.3841 36.9317 77.9426C37.1449 75.9513 37.2919 75.8072 39.3932 76.0429C40.6653 76.1856 41.2256 75.7911 41.0711 74.5869C41.0654 74.5425 41.0707 74.497 41.0713 74.452C41.1426 69.7436 42.9187 68.3602 47.9442 69.0423C48.8538 69.1657 49.0066 69.6983 49.0151 70.3713C49.0344 71.9005 49.0572 73.4302 49.0314 74.959C49.018 75.7574 49.3302 76.1157 50.2201 76.064C51.2279 76.0054 52.2488 76.0909 53.2494 75.9886C54.526 75.8581 55.1241 76.2175 55.1247 77.5049C55.1267 82.1718 55.2486 81.3005 51.1944 81.3306C49.0338 81.3467 49.0331 81.3275 49.0265 83.3182C49.0246 83.8579 49.0265 84.3977 49.0264 85.0717Z" fill="#F0F0F0"/>
<path d="M34.8368 80.3465C34.8595 86.3121 34.8481 92.1572 34.8943 98.0019C34.9024 99.0285 34.5059 99.4465 33.4241 99.5404C31.7389 99.6867 30.0608 99.6509 28.3768 99.6025C27.0874 99.5654 26.6523 98.9412 26.6613 97.7816C26.6966 93.2406 26.6319 88.6988 26.6922 84.1584C26.7124 82.6357 26.2689 81.6079 24.5154 81.3821C24.0985 81.3285 23.7731 81.1328 23.676 80.7417C23.3459 79.4122 23.2979 78.0705 23.6565 76.7422C23.84 76.0627 24.4901 75.8741 25.1283 75.8625C26.8598 75.831 28.6144 75.7003 30.3199 75.9025C32.9509 76.2144 34.2619 77.9281 34.8368 80.3465Z" fill="#F0F0F0"/>
<path d="M25.2539 69.6646C25.4702 66.8294 25.8803 66.4428 28.722 65.9986C29.8492 65.8223 30.9286 65.9773 32.0073 66.1859C33.0993 66.3971 33.7839 67.0426 33.9672 68.0931C34.7392 72.5162 33.0171 73.1756 28.9457 73.1118C26.1368 73.0679 25.5516 72.3548 25.2539 69.6646Z" fill="#F0F0F0"/>
<path d="M97.7711 14.6423C97.3683 13.9769 96.5553 13.5572 96.9111 12.7136C97.4774 12.4435 97.7412 12.8153 98.0017 13.1184C98.9604 14.2337 99.9088 15.3569 100.847 16.4877C101.107 16.8017 101.455 17.2031 100.965 17.528C100.511 17.829 100.16 17.4413 99.8885 17.1321C99.1905 16.3375 98.5158 15.5249 97.7711 14.6423Z" fill="#F0F0F0"/>
<path d="M98.6228 21.9831C98.8779 22.3412 99.021 22.6366 98.679 22.8957C98.4763 23.0493 98.1943 23.0473 98.0148 22.877C96.8571 21.7791 95.9193 20.5408 95.2781 19.0927C97.0182 19.4184 97.4375 21.0126 98.6228 21.9831Z" fill="#F0F0F0"/>
<path d="M103.295 20.9069C103.778 20.0944 104.166 20.5907 104.499 20.9335C104.842 21.2864 105.309 21.6601 105.091 22.2094C104.935 22.6015 104.547 22.524 104.262 22.3037C103.815 21.9578 103.482 21.5232 103.295 20.9069Z" fill="#F0F0F0"/>
<path d="M100.394 25.9612C100.16 25.4846 100.19 25.1488 100.727 25.1018C101.301 25.0518 101.545 25.4872 101.789 25.8664C101.972 26.1496 102.051 26.4788 101.696 26.6914C101.343 26.9025 101.066 26.6663 100.822 26.4457C100.686 26.3225 100.572 26.1781 100.394 25.9612Z" fill="#F0F0F0"/>
<path d="M83.8293 18.8616C79.6775 22.0949 74.1025 21.3725 71.1427 18.1718C67.9547 14.7241 68.2391 9.71371 71.7613 6.62466C75.1481 3.65442 80.7006 3.74403 84.0728 6.82336C87.3959 9.85791 87.5525 14.9503 84.4231 18.3266C84.2662 18.4959 84.0811 18.6424 83.8293 18.8616ZM84.1472 8.63315C83.7282 8.20275 83.3482 7.731 82.8838 7.34862C79.7941 4.80463 75.2901 4.97103 72.3187 7.7184C69.596 10.2358 69.3642 14.4602 71.8007 17.1572C74.4895 20.1334 78.9663 20.6959 82.2953 18.4758C85.642 16.2439 86.4093 12.4699 84.1472 8.63315Z" fill="#F0F0F0"/>
<path d="M78.047 15.3643C76.155 15.2054 74.9453 14.1164 74.9493 12.6931C74.9529 11.3662 76.2421 10.0775 77.6593 9.98419C79.0546 9.8923 80.45 11.0101 80.6575 12.3861C80.8654 13.7646 80.0094 14.7784 78.047 15.3643ZM76.6441 13.6966C77.1993 14.075 77.7801 14.4174 78.4704 14.0143C79.2249 13.5737 79.6903 12.9599 79.2423 12.1179C78.8365 11.3552 78.127 10.9629 77.2398 11.3686C76.2371 11.827 75.8854 12.5753 76.6441 13.6966Z" fill="#F0F0F0"/>
</svg>
