<svg width="20" height="20" viewBox="0 0 20 20" fill="none" xmlns="http://www.w3.org/2000/svg">
<path d="M19.959 11.7189V19.0979H15.681V12.2129C15.681 10.4829 15.062 9.30288 13.514 9.30288C12.332 9.30288 11.628 10.0989 11.319 10.8679C11.206 11.1429 11.177 11.5259 11.177 11.9109V19.0979H6.897C6.897 19.0979 6.955 7.43788 6.897 6.22888H11.177V8.05288L11.149 8.09488H11.177V8.05288C11.745 7.17788 12.76 5.92688 15.033 5.92688C17.848 5.92688 19.959 7.76688 19.959 11.7189V11.7189ZM2.421 0.0258789C0.958 0.0258789 0 0.985879 0 2.24888C0 3.48388 0.93 4.47288 2.365 4.47288H2.393C3.886 4.47288 4.813 3.48388 4.813 2.24888C4.787 0.985879 3.887 0.0258789 2.422 0.0258789H2.421ZM0.254 19.0979H4.532V6.22888H0.254V19.0979Z" fill="#FF0817"/>
</svg>
