<svg version="1.1" id="Layer_1" xmlns="http://www.w3.org/2000/svg" xmlns:xlink="http://www.w3.org/1999/xlink" x="0px" y="0px"
	 width="100%" viewBox="0 0 1024 640" enable-background="new 0 0 1024 640" xml:space="preserve">
<path fill="#000000" opacity="1.000000" stroke="none" 
	d="
M686.034973,381.000000 
	C686.039429,373.335419 686.098572,366.170319 686.028503,359.006470 
	C685.986694,354.728058 687.591187,352.750031 692.235291,352.700043 
	C709.945984,352.509399 713.323853,355.672913 713.369812,373.373901 
	C713.386719,379.871979 713.327148,386.370544 713.383057,392.868164 
	C713.399841,394.816559 713.005249,396.891876 714.678650,398.962494 
	C717.712036,397.517670 720.756897,395.924957 723.910400,394.588959 
	C741.024658,387.338715 756.002319,395.530182 759.273499,413.879547 
	C760.954712,423.309937 759.865540,432.834167 760.238708,442.308105 
	C760.641663,452.538544 758.574707,463.017059 763.288147,472.841339 
	C764.178467,474.697052 763.000732,475.949280 761.428345,476.922577 
	C756.008179,480.277435 750.181641,481.955963 743.797668,481.088135 
	C737.282715,480.202606 733.574158,475.328125 732.666504,467.103424 
	C731.473816,456.296173 732.298950,445.465210 732.066528,434.648132 
	C731.987854,430.985199 732.039185,427.304993 731.686951,423.666016 
	C731.230225,418.947784 728.661621,416.969177 723.927246,417.233063 
	C717.326538,417.600983 713.295288,421.755890 713.285522,428.307404 
	C713.262573,443.636322 713.155273,458.966949 713.357056,474.293243 
	C713.412476,478.500519 712.043640,480.546356 707.788086,480.579742 
	C702.963562,480.617615 698.127075,481.028992 693.319031,480.796387 
	C686.546448,480.468842 686.052307,479.753113 686.053162,472.974243 
	C686.055359,455.645905 686.085815,438.317566 686.084961,420.989227 
	C686.084290,407.826141 686.052979,394.663086 686.034973,381.000000 
z"/>
<path fill="#000000" opacity="1.000000" stroke="none" 
	d="
M273.186920,468.946533 
	C273.231598,480.885223 273.231659,480.899963 261.475677,480.949615 
	C257.977600,480.964417 254.479034,480.872162 250.980713,480.826935 
	C246.443039,480.768250 244.640335,478.667358 244.676041,473.954712 
	C244.857849,449.958557 244.779190,425.960388 244.775070,401.962921 
	C244.773117,390.630768 244.876724,379.295685 244.641830,367.967926 
	C244.546890,363.389343 246.255539,361.834808 250.784515,361.863525 
	C272.281158,361.999847 293.779785,361.962067 315.276520,361.812317 
	C319.120026,361.785522 320.573151,363.377441 321.059662,366.970184 
	C322.811676,379.907928 317.843567,386.008514 304.878113,386.232544 
	C295.881958,386.388000 286.879547,386.346191 277.882660,386.211700 
	C274.518250,386.161438 272.971161,387.286285 273.123810,390.819214 
	C273.317932,395.310974 273.334198,399.820892 273.175354,404.314087 
	C273.051910,407.806061 274.511444,408.981964 277.921265,408.930237 
	C286.751160,408.796265 295.587769,409.060089 304.415985,408.881836 
	C308.324738,408.802948 310.202240,410.180603 310.684998,414.138733 
	C311.254517,418.808105 311.320862,423.386597 310.643616,428.056030 
	C310.103790,431.778076 308.239960,433.153717 304.621094,433.105774 
	C295.956818,432.990997 287.286926,433.194763 278.625885,432.990967 
	C274.567566,432.895447 273.012024,434.300659 273.103455,438.460846 
	C273.323181,448.455139 273.180481,458.457367 273.186920,468.946533 
z"/>
<path fill="#000000" opacity="1.000000" stroke="none" 
	d="
M515.591431,426.862122 
	C517.866882,412.244446 523.436401,400.469177 537.449768,394.065125 
	C560.738220,383.422424 585.894958,397.167358 589.478394,422.445709 
	C590.392273,428.892517 589.415771,434.983093 588.445984,441.211121 
	C587.979431,444.207703 586.511536,445.427521 583.487610,445.571747 
	C572.837280,446.079803 562.200623,446.028046 551.551025,445.540192 
	C549.013489,445.423950 545.580750,444.106659 544.080200,446.641266 
	C542.456726,449.383270 544.701843,452.320740 546.000244,454.966797 
	C548.117676,459.282043 552.151367,460.295868 556.407349,460.659668 
	C563.205750,461.240814 569.649719,459.428680 575.875427,457.045105 
	C579.278809,455.742126 581.419800,456.048706 583.204895,459.439850 
	C589.851440,472.066071 589.026550,473.108917 576.904175,478.144440 
	C565.837219,482.741577 554.255188,483.359253 542.599365,480.897186 
	C527.500916,477.707977 517.973755,465.971191 515.769348,448.153198 
	C514.911987,441.222809 514.017822,434.266418 515.591431,426.862122 
M563.930481,422.493195 
	C563.679993,421.198120 563.593994,419.843445 563.150635,418.618195 
	C561.173401,413.154388 556.286194,410.261566 551.112793,411.378265 
	C546.929932,412.281158 543.045471,418.071472 543.312683,422.928894 
	C543.379578,424.145355 543.465942,425.541962 544.797485,425.761566 
	C550.833862,426.757080 556.905151,427.216553 562.875061,425.391296 
	C563.389404,425.234039 563.579041,424.014526 563.930481,422.493195 
z"/>
<path fill="#000000" opacity="1.000000" stroke="none" 
	d="
M497.684509,386.448730 
	C495.546936,388.440308 496.168457,390.719147 496.165070,392.811829 
	C496.121521,419.612640 496.142456,446.413544 496.121857,473.214417 
	C496.116821,479.747009 495.719666,480.335358 489.150513,480.803345 
	C484.179810,481.157471 479.168365,480.898468 474.178314,481.033264 
	C469.399261,481.162323 467.469055,479.223633 467.507843,474.189850 
	C467.711761,447.723358 467.622284,421.254578 467.636047,394.786591 
	C467.640564,386.121002 467.567169,386.054810 459.157074,386.124481 
	C453.830414,386.168610 448.501129,386.089813 443.177490,386.232666 
	C440.318359,386.309357 438.947571,385.127106 438.450684,382.328705 
	C437.508881,377.024658 437.533447,371.738068 438.192230,366.424194 
	C438.578094,363.311584 440.078918,361.850616 443.464905,361.861847 
	C468.933655,361.946136 494.402954,361.915649 519.871826,361.841431 
	C523.301758,361.831421 525.041077,363.043152 525.446350,366.637482 
	C525.800781,369.779724 526.387878,372.791168 525.676392,376.008423 
	C524.487854,381.382599 521.364319,384.258667 515.990784,385.355774 
	C510.032166,386.572296 504.036621,385.747986 497.684509,386.448730 
z"/>
<path fill="#000000" opacity="1.000000" stroke="none" 
	d="
M491.035034,200.071350 
	C471.774323,189.182068 462.424530,167.386993 468.029510,147.032425 
	C473.912872,125.666832 492.860626,111.516632 515.158813,111.836197 
	C536.050232,112.135597 554.779663,127.273621 559.738708,147.668015 
	C562.501831,159.031677 561.040588,169.862305 555.908569,180.190735 
	C554.390625,183.245651 554.529907,185.678741 556.024536,188.603851 
	C562.765930,201.797424 570.988892,214.213242 576.690796,227.949341 
	C584.076904,245.742798 586.782593,264.069336 583.239502,283.185120 
	C582.564453,286.826996 581.123779,289.109406 577.398071,290.318787 
	C552.668762,298.345947 527.871338,306.009888 501.804443,308.471069 
	C482.385803,310.304535 463.543640,308.118744 445.629364,300.165710 
	C442.188202,298.638062 440.592010,299.290985 438.914307,302.333740 
	C432.896210,313.248505 423.845764,320.373291 411.712311,323.454742 
	C410.430359,323.780334 409.103271,324.026367 407.786377,324.091003 
	C406.219055,324.167938 404.688812,323.769775 404.215668,322.019165 
	C403.710419,320.149780 405.064636,319.280090 406.499268,318.685059 
	C408.034698,318.048248 409.611237,317.476227 411.215210,317.044495 
	C422.955078,313.884430 431.004456,306.455994 436.099121,295.605682 
	C439.188110,289.026978 443.511169,283.743103 450.746460,281.495331 
	C452.011993,281.102173 453.325714,280.834381 454.635406,280.620514 
	C456.387177,280.334473 458.135986,280.447998 458.685455,282.517242 
	C459.296875,284.819885 457.421967,285.313660 455.829346,285.796753 
	C451.676605,287.056519 447.648499,288.482605 444.651154,292.607666 
	C453.963318,298.027344 463.877533,300.453247 474.099304,301.814026 
	C497.390625,304.914642 519.890381,300.211151 542.219177,294.469849 
	C552.535034,291.817352 562.673279,288.478760 572.915588,285.532990 
	C576.205383,284.586823 577.388733,282.755432 577.908691,279.186615 
	C581.432495,254.998657 574.215759,233.447250 562.496826,212.854050 
	C558.315063,205.505447 554.372620,198.020615 549.985229,189.982986 
	C545.032654,194.637222 540.002014,198.370300 534.466003,201.364731 
	C532.841614,202.243362 532.724976,203.652573 533.193420,205.238739 
	C534.798157,210.672729 534.169006,216.119202 533.316406,221.575943 
	C531.712952,231.838455 531.884155,242.158295 532.254089,252.494965 
	C532.326050,254.505081 533.413330,257.259583 530.915955,258.355164 
	C528.396912,259.460266 526.538574,257.226532 524.910095,255.674911 
	C516.051819,247.234512 505.932953,241.035385 493.970978,238.155670 
	C476.884094,234.042236 461.691223,238.016541 448.272491,249.199005 
	C447.633118,249.731827 447.068878,250.356415 446.418518,250.874084 
	C445.345001,251.728546 444.150513,252.542145 442.841614,251.451447 
	C441.427368,250.272919 441.661896,248.751038 442.550049,247.393845 
	C444.408081,244.554688 447.047638,242.514923 449.785217,240.583481 
	C450.713165,239.928787 451.539093,239.129486 452.663086,238.184998 
	C446.124054,229.298828 437.084167,225.078552 426.844025,223.427673 
	C419.770172,222.287231 412.555450,222.409470 405.543701,224.549835 
	C403.844208,225.068619 401.732880,226.112137 400.889679,223.581284 
	C400.031830,221.006531 402.203033,220.112152 404.080078,219.344070 
	C408.303619,217.615692 412.803650,217.024368 417.280853,216.961472 
	C432.491760,216.747803 445.742340,221.576324 456.249847,232.924576 
	C457.642700,234.428864 458.649323,235.781265 461.220245,234.815430 
	C481.819977,227.076630 500.791168,231.349289 518.692749,242.944489 
	C520.748718,244.276138 522.792908,245.625824 525.957458,247.696732 
	C524.384277,233.992798 528.657227,221.734634 527.839050,209.080963 
	C527.613098,205.586899 526.921021,203.977951 522.738220,204.920380 
	C511.768646,207.391968 501.240173,205.707214 491.035034,200.071350 
M477.264435,178.196060 
	C486.871490,194.591476 504.004730,202.825775 521.488953,199.450470 
	C544.715149,194.966721 559.040527,172.578629 553.694824,149.118317 
	C548.612915,126.815903 525.201355,113.165367 502.713440,119.207672 
	C478.819244,125.627831 465.233185,152.369263 477.264435,178.196060 
z"/>
<path fill="#000000" opacity="1.000000" stroke="none" 
	d="
M646.177979,481.469910 
	C623.747742,485.041351 605.979736,474.691132 601.513977,451.196320 
	C598.382812,434.722778 599.199707,418.984711 609.357239,404.911621 
	C622.414246,386.821594 652.294861,385.830322 666.729675,402.816803 
	C670.936523,407.767365 672.636719,413.666443 672.566711,419.934967 
	C672.453125,430.099701 659.027161,437.291748 649.847900,432.388184 
	C648.078552,431.442963 647.823853,429.970490 647.660217,428.253357 
	C647.376343,425.274597 647.153870,422.270508 646.567566,419.344818 
	C645.792236,415.475800 643.806763,412.569519 639.416443,412.176453 
	C634.952087,411.776764 631.836182,413.791260 630.652710,417.957794 
	C627.405457,429.389740 626.997070,440.991272 630.581543,452.377533 
	C632.611450,458.825867 638.226746,461.330750 644.922546,459.904633 
	C649.661438,458.895294 654.325989,457.738190 658.404541,454.931458 
	C660.682617,453.363708 662.778015,453.701965 664.625000,455.742767 
	C665.071350,456.235901 665.571594,456.680389 666.014893,457.176056 
	C673.734070,465.806885 673.061279,469.946808 662.974609,475.602905 
	C657.858826,478.471588 652.469238,480.606323 646.177979,481.469910 
z"/>
<path fill="#000000" opacity="1.000000" stroke="none" 
	d="
M414.255310,427.012604 
	C414.285431,435.342072 414.198517,443.177246 414.384857,451.005920 
	C414.533295,457.242859 416.384918,458.737549 422.618439,459.060059 
	C425.591431,459.213867 429.495911,457.378998 431.295135,460.960144 
	C433.723053,465.792694 434.559998,471.151855 433.019501,476.502502 
	C432.297302,479.011047 429.763214,479.020844 427.602448,479.230713 
	C423.131958,479.664886 418.644653,479.959229 414.189880,480.516022 
	C397.480347,482.604614 387.398651,474.334778 386.931549,457.530579 
	C386.575104,444.707825 386.628082,431.864685 386.889130,419.038544 
	C386.983643,414.394775 385.472687,412.884949 380.907043,413.083527 
	C373.403564,413.409943 373.369507,413.197479 372.535400,405.564667 
	C372.356018,403.922760 372.247803,402.235870 372.411285,400.600128 
	C373.148712,393.222687 373.657410,392.688782 380.927124,393.561890 
	C385.328430,394.090515 387.266663,392.628967 386.732147,388.167419 
	C386.712463,388.003265 386.730743,387.834442 386.733093,387.667786 
	C386.979736,370.223633 393.124603,365.098450 410.511200,367.625397 
	C413.658142,368.082733 414.186676,370.056000 414.216156,372.549377 
	C414.283112,378.214752 414.361877,383.882263 414.272705,389.546326 
	C414.226135,392.504181 415.306244,393.831757 418.385101,393.640045 
	C421.871918,393.422913 425.403992,393.739624 428.865662,393.360748 
	C433.282440,392.877350 435.351654,394.208710 435.353546,398.978302 
	C435.360474,416.268738 435.782288,413.040680 421.755829,413.152374 
	C414.280792,413.211884 414.278656,413.140869 414.255524,420.515961 
	C414.249268,422.515778 414.255646,424.515656 414.255310,427.012604 
z"/>
<path fill="#000000" opacity="1.000000" stroke="none" 
	d="
M365.163269,409.506287 
	C365.241791,431.608154 365.202515,453.263641 365.362457,474.917664 
	C365.390533,478.721313 364.018585,480.269623 360.275787,480.617706 
	C354.445709,481.159882 348.639709,481.026947 342.813751,480.847687 
	C338.352875,480.710388 336.847504,478.397827 336.878662,474.101440 
	C337.000549,457.277771 336.776886,440.450867 336.985352,423.628937 
	C337.055237,417.987427 335.520874,414.179596 329.454468,413.343262 
	C328.011993,413.144409 326.886322,412.419312 326.550385,410.970428 
	C325.408264,406.044739 325.241974,401.073914 326.482910,396.152924 
	C327.117798,393.635254 329.366699,392.936401 331.574677,392.893494 
	C337.565308,392.777008 343.635620,392.292480 349.536224,393.041656 
	C358.638611,394.197388 363.174316,400.546478 365.163269,409.506287 
z"/>
<path fill="#000000" opacity="1.000000" stroke="none" 
	d="
M332.009430,369.931152 
	C332.757599,359.426819 334.176666,357.994476 344.007965,356.348633 
	C347.907806,355.695801 351.642242,356.269989 355.374115,357.042847 
	C359.152222,357.825317 361.520660,360.216827 362.154907,364.108643 
	C364.825592,380.495667 358.867737,382.938690 344.781769,382.702576 
	C335.063934,382.539673 333.039307,379.897766 332.009430,369.931152 
z"/>
<path fill="#000000" opacity="1.000000" stroke="none" 
	d="
M364.624969,498.736389 
	C366.940155,494.990997 369.855804,495.847137 372.548889,497.349243 
	C375.128571,498.788116 375.618744,501.360016 374.138458,503.765686 
	C372.954956,505.688904 374.670563,507.659332 373.586090,509.426208 
	C370.967010,510.065674 371.032990,506.394714 369.076385,506.598236 
	C366.999207,506.606781 367.079437,509.005432 364.780243,509.302917 
	C363.675110,505.980042 364.135651,502.538940 364.624969,498.736389 
z"/>
<path fill="#000000" opacity="1.000000" stroke="none" 
	d="
M705.648682,506.958069 
	C704.654358,507.938019 704.559448,509.429535 702.672241,509.288544 
	C701.278442,505.920715 701.632751,502.336212 702.477722,498.904572 
	C703.203674,495.955872 705.855652,496.190155 708.199280,496.599640 
	C711.054871,497.098633 712.800293,498.904877 712.243652,501.791290 
	C711.762695,504.285309 711.455322,506.773895 711.566650,509.286011 
	C708.804810,509.745758 708.557800,505.730408 705.648682,506.958069 
z"/>
<path fill="#000000" opacity="1.000000" stroke="none" 
	d="
M419.998169,507.772095 
	C419.903748,505.423309 419.923096,503.435303 419.900665,501.447784 
	C419.858795,497.733490 421.536224,495.840057 425.380676,496.238312 
	C429.304291,496.644806 431.209961,498.788422 430.049774,502.646820 
	C429.409332,504.776672 429.618866,506.804413 429.800934,508.882660 
	C427.192413,509.840485 427.043549,506.578430 425.065887,506.632324 
	C422.924011,505.270203 422.851685,511.110229 419.998169,507.772095 
z"/>
<path fill="#000000" opacity="1.000000" stroke="none" 
	d="
M617.489563,508.071716 
	C617.472900,505.424744 617.671814,503.112518 617.591248,500.810059 
	C617.471863,497.397278 618.969299,495.898804 622.363159,496.275482 
	C625.808350,496.657867 628.270264,498.356995 627.545532,502.008942 
	C627.057129,504.469940 626.008789,506.811676 627.058655,509.304169 
	C624.062927,509.804138 623.934937,506.711792 621.821228,506.763336 
	C619.999512,506.084503 620.399170,511.453064 617.489563,508.071716 
z"/>
<path fill="#000000" opacity="1.000000" stroke="none" 
	d="
M324.224487,495.960754 
	C329.317139,496.029938 331.579010,498.973389 331.875763,503.152344 
	C332.146515,506.965302 329.524994,509.349670 325.997772,510.117035 
	C322.203308,510.942505 319.589050,508.880737 318.210693,505.453461 
	C316.658691,501.594452 318.668213,498.375275 324.224487,495.960754 
M321.099915,502.145294 
	C320.359558,504.507202 321.500366,505.950012 323.478088,506.960114 
	C324.847961,507.659729 326.054688,507.298004 327.110596,506.286102 
	C328.941345,504.531647 329.408722,502.443909 327.605194,500.582336 
	C325.300354,498.203339 323.149719,499.161560 321.099915,502.145294 
z"/>
<path fill="#000000" opacity="1.000000" stroke="none" 
	d="
M671.330200,503.035034 
	C671.027893,505.352936 671.877319,507.465607 670.070374,509.336731 
	C666.492004,508.893250 665.555237,504.975769 662.877136,503.328125 
	C661.229858,505.120178 663.287048,508.328796 659.624573,509.521973 
	C658.234497,505.321747 658.445740,501.366486 659.698792,497.202881 
	C664.221558,497.625336 665.092651,501.854279 667.929443,503.740509 
	C669.643005,501.717346 667.634460,498.950531 669.749207,497.018555 
	C672.353516,498.308716 670.959229,500.741943 671.330200,503.035034 
z"/>
<path fill="#000000" opacity="1.000000" stroke="none" 
	d="
M605.773682,509.445068 
	C601.597473,507.126556 597.938293,507.813873 593.259949,511.346619 
	C594.779724,504.984131 597.344055,500.948822 600.791016,495.970245 
	C603.011475,501.077667 606.720032,504.282928 605.773682,509.445068 
z"/>
<path fill="#000000" opacity="1.000000" stroke="none" 
	d="
M448.657776,508.084412 
	C445.874817,507.446259 443.979004,509.310364 440.835327,509.777008 
	C442.448639,504.713623 444.819580,500.860352 447.691589,496.269928 
	C451.096771,500.742218 452.596802,505.097046 454.592834,509.320526 
	C451.863342,510.573975 450.860962,507.931396 448.657776,508.084412 
z"/>
<path fill="#000000" opacity="1.000000" stroke="none" 
	d="
M582.898071,166.078918 
	C581.504333,163.613739 578.691528,162.058975 579.922546,158.933380 
	C581.882019,157.932846 582.794495,159.310257 583.695801,160.433044 
	C587.012756,164.565170 590.293945,168.726654 593.538330,172.916000 
	C594.439270,174.079361 595.642944,175.566650 593.948486,176.770279 
	C592.378601,177.885498 591.163391,176.449265 590.223633,175.303619 
	C587.808594,172.359497 585.474304,169.349136 582.898071,166.078918 
z"/>
<path fill="#000000" opacity="1.000000" stroke="none" 
	d="
M483.894440,504.666870 
	C482.681671,503.563080 482.005249,503.550781 481.810547,505.109344 
	C481.616302,506.664398 482.060364,508.495728 479.476562,509.730164 
	C478.263519,505.439117 478.398224,501.476105 479.396118,497.092590 
	C483.346039,498.113495 484.260651,502.119537 487.527008,503.243713 
	C489.480835,501.952179 486.805573,498.826569 490.167236,497.577545 
	C492.199646,501.560730 489.638947,505.350006 490.079407,509.272919 
	C486.576294,509.292999 486.016510,506.193359 483.894440,504.666870 
z"/>
<path fill="#000000" opacity="1.000000" stroke="none" 
	d="
M515.638733,502.722992 
	C515.901367,500.749023 515.104248,498.976440 516.776611,497.394348 
	C520.305359,498.057465 521.332642,501.792999 523.876770,503.827209 
	C525.890564,501.955688 523.777344,498.678833 526.890503,496.797211 
	C527.622803,501.314636 527.823914,505.328278 526.450073,509.578278 
	C522.584290,508.739624 521.762329,505.040985 519.100525,503.338745 
	C517.119141,504.847015 519.498230,508.087158 516.557800,509.431824 
	C514.245544,507.642944 515.802795,505.220795 515.638733,502.722992 
z"/>
<path fill="#000000" opacity="1.000000" stroke="none" 
	d="
M545.677612,504.994659 
	C547.015686,503.119995 548.300049,503.308899 549.344421,504.859283 
	C550.165344,506.077942 549.985107,507.416595 549.015442,508.540955 
	C547.247681,510.590668 544.905518,510.720062 542.633301,509.907227 
	C539.531250,508.797607 537.772339,506.367554 537.856384,503.051697 
	C537.946838,499.488831 540.146362,497.224823 543.402466,496.220886 
	C545.637390,495.531799 547.890442,495.675171 549.082153,498.335205 
	C547.279358,500.078796 545.315002,498.751007 543.639954,499.362579 
	C541.480530,500.151062 540.328857,501.674866 540.601562,503.896942 
	C540.858826,505.993713 542.462830,506.968262 544.471741,507.068634 
	C545.658203,507.127930 545.521667,506.062378 545.677612,504.994659 
z"/>
<path fill="#000000" opacity="1.000000" stroke="none" 
	d="
M681.868896,500.372955 
	C683.815796,495.868011 686.220886,495.218018 690.774414,497.526825 
	C689.061584,499.061371 688.515625,499.323608 685.552124,500.023346 
	C685.625549,501.759460 688.219360,501.385193 688.175659,503.587463 
	C687.993713,505.132141 685.088562,504.334503 684.911133,506.391937 
	C686.151794,508.787506 689.128906,506.575439 690.755188,508.755585 
	C689.090454,511.418793 686.478027,510.318756 684.333618,509.995117 
	C682.184143,509.670746 681.740784,507.690826 681.726807,505.768707 
	C681.714844,504.118256 681.808044,502.467072 681.868896,500.372955 
z"/>
<path fill="#000000" opacity="1.000000" stroke="none" 
	d="
M574.763428,508.128296 
	C574.680847,505.569550 574.724243,503.406555 574.659180,501.246826 
	C574.573914,498.416260 575.281677,496.237640 578.627747,496.137421 
	C581.561401,496.049530 583.939758,497.092804 584.861755,500.060944 
	C585.801025,503.084778 583.917358,505.685303 581.468811,505.575836 
	C578.375854,505.437592 578.109497,510.226044 574.763428,508.128296 
M577.528320,502.066406 
	C578.666504,504.314178 580.207886,503.492035 581.522217,502.414429 
	C582.462830,501.643188 582.123352,500.546906 581.153625,499.970551 
	C579.379150,498.915863 578.029541,499.278229 577.528320,502.066406 
z"/>
<path fill="#000000" opacity="1.000000" stroke="none" 
	d="
M351.233459,498.699158 
	C352.061798,497.271606 352.932739,496.994934 353.664795,498.162018 
	C355.322479,500.804657 353.747253,507.302765 351.110443,509.057739 
	C347.841370,511.233582 344.076721,510.170135 343.152985,506.449005 
	C342.431946,503.544464 341.805908,500.378815 343.965637,497.206299 
	C345.936462,498.862640 345.093262,500.808411 345.402985,502.435791 
	C345.739288,504.202820 345.734833,506.495758 348.128479,506.550812 
	C350.580811,506.607178 350.700317,504.416046 350.852356,502.554504 
	C350.947083,501.394562 351.020264,500.232880 351.233459,498.699158 
z"/>
<path fill="#000000" opacity="1.000000" stroke="none" 
	d="
M585.844482,193.275818 
	C586.727234,194.602829 587.222107,195.697159 586.039062,196.656982 
	C585.337708,197.226044 584.361938,197.218567 583.740967,196.587875 
	C579.735657,192.520233 576.491272,187.932495 574.273010,182.567291 
	C580.293274,183.773972 581.743713,189.680222 585.844482,193.275818 
z"/>
<path fill="#000000" opacity="1.000000" stroke="none" 
	d="
M402.806854,496.271423 
	C405.147491,496.944000 407.441864,495.429901 410.077637,497.812347 
	C403.765747,499.766388 407.804535,505.916443 405.168274,509.719635 
	C402.324371,508.315460 403.204010,506.124359 403.128571,504.295105 
	C403.043488,502.231201 403.552307,500.360962 401.129089,498.771454 
	C398.800720,497.244202 400.929504,496.572968 402.806854,496.271423 
z"/>
<path fill="#000000" opacity="1.000000" stroke="none" 
	d="
M304.230835,506.772095 
	C304.101166,508.120392 304.024139,509.136047 301.811188,509.404724 
	C302.666260,504.665009 298.295563,501.927765 297.170166,497.667358 
	C300.284912,496.608032 300.432709,500.145905 303.531799,500.057159 
	C304.720673,500.010742 304.775177,496.207489 307.894745,497.130554 
	C308.443420,500.912354 303.744446,502.727020 304.230835,506.772095 
z"/>
<path fill="#000000" opacity="1.000000" stroke="none" 
	d="
M645.859497,496.182373 
	C647.336731,496.460754 649.104065,497.596008 647.854858,498.181732 
	C643.064941,500.427612 645.000671,504.698425 644.150146,508.113861 
	C644.044250,508.539246 643.636841,508.889496 642.933594,509.900879 
	C640.072998,506.003479 644.098999,499.905518 638.234619,497.944397 
	C640.529602,495.087646 643.273010,496.851288 645.859497,496.182373 
z"/>
<path fill="#000000" opacity="1.000000" stroke="none" 
	d="
M504.143433,499.685608 
	C503.945404,503.200897 505.017365,506.536743 502.743042,510.103180 
	C499.997833,505.781311 501.066071,501.960693 502.065125,498.470184 
	C502.576904,496.682129 503.735748,498.054901 504.143433,499.685608 
z"/>
<path fill="#000000" opacity="1.000000" stroke="none" 
	d="
M602.010620,189.288895 
	C603.680481,186.278549 605.023682,188.117294 606.175964,189.387283 
	C607.362122,190.694626 608.975647,192.079224 608.221619,194.114243 
	C607.683289,195.567245 606.340637,195.279816 605.355408,194.463638 
	C603.808838,193.182343 602.656250,191.572266 602.010620,189.288895 
z"/>
<path fill="#000000" opacity="1.000000" stroke="none" 
	d="
M466.448120,509.227509 
	C464.201355,506.002228 464.103210,500.908844 466.447968,495.879547 
	C467.391663,501.030884 468.361603,504.969025 466.448120,509.227509 
z"/>
<path fill="#000000" opacity="1.000000" stroke="none" 
	d="
M591.971069,208.014481 
	C591.161804,206.248764 591.266663,205.004547 593.125610,204.830627 
	C595.108826,204.645065 595.954529,206.258331 596.799744,207.663254 
	C597.430847,208.712357 597.705872,209.931931 596.477295,210.719650 
	C595.257385,211.501770 594.297241,210.626831 593.453430,209.809479 
	C592.982239,209.353058 592.587341,208.817932 591.971069,208.014481 
z"/>
<path fill="#000000" opacity="1.000000" stroke="none" 
	d="
M534.663452,181.711273 
	C520.299255,193.690247 501.011383,191.013947 490.771484,179.155426 
	C479.741730,166.382141 480.725739,147.819168 492.911591,136.374573 
	C504.628845,125.370140 523.838989,125.702133 535.505737,137.110718 
	C547.002808,148.353409 547.544495,167.220139 536.717773,179.729218 
	C536.174927,180.356400 535.534546,180.899139 534.663452,181.711273 
M535.763367,143.815826 
	C534.313538,142.221207 532.998779,140.473434 531.392151,139.056763 
	C520.702698,129.631531 505.120361,130.248032 494.839905,140.426773 
	C485.420105,149.753403 484.618103,165.404327 493.047913,175.396606 
	C502.350250,186.423050 517.838867,188.506973 529.356140,180.281769 
	C540.934692,172.012756 543.589294,158.030685 535.763367,143.815826 
z"/>
<path fill="#000000" opacity="1.000000" stroke="none" 
	d="
M514.658386,168.754120 
	C508.112457,168.165283 503.927399,164.130783 503.940979,158.857483 
	C503.953644,153.941376 508.413879,149.167084 513.317017,148.821274 
	C518.144409,148.480820 522.972046,152.622345 523.690002,157.719971 
	C524.409241,162.827423 521.447693,166.583435 514.658386,168.754120 
M509.804535,162.575195 
	C511.725311,163.977203 513.734985,165.245697 516.122986,163.752441 
	C518.733582,162.120010 520.343750,159.845963 518.793823,156.726578 
	C517.389648,153.900650 514.934937,152.447372 511.865448,153.950195 
	C508.396545,155.648529 507.179779,158.421127 509.804535,162.575195 
z"/>
</svg>