<svg width="20" height="14" viewBox="0 0 20 14" fill="none" xmlns="http://www.w3.org/2000/svg">
<path d="M15.812 0.0171133H4.145C1.855 0.0171133 0 1.85211 0 4.11611V9.88411C0 12.1481 1.856 13.9841 4.145 13.9841H15.812C18.102 13.9841 19.957 12.1481 19.957 9.88411V4.11611C19.957 1.85211 18.101 0.0161133 15.812 0.0161133V0.0171133ZM13.009 7.28011L7.552 9.85511C7.51872 9.87114 7.48192 9.87848 7.44503 9.87647C7.40815 9.87445 7.37237 9.86313 7.34103 9.84357C7.3097 9.82401 7.28382 9.79684 7.2658 9.76459C7.24779 9.73234 7.23822 9.69605 7.238 9.65911V4.35011C7.23867 4.31299 7.24872 4.27663 7.26722 4.24444C7.28573 4.21224 7.31208 4.18526 7.34382 4.16599C7.37556 4.14672 7.41167 4.13581 7.44877 4.13425C7.48587 4.1327 7.52276 4.14057 7.556 4.15711L13.014 6.89211C13.0504 6.91024 13.0809 6.93826 13.102 6.97294C13.1232 7.00762 13.1341 7.04756 13.1336 7.08818C13.1331 7.1288 13.1211 7.16845 13.0991 7.20258C13.077 7.2367 13.0458 7.26392 13.009 7.28111V7.28011Z" fill="#FF0817"/>
</svg>
